<?xml version="1.0" encoding="UTF-8" standalone="no"?>
<!-- Created with Inkscape (http://www.inkscape.org/) -->

<svg
   xmlns:dc="http://purl.org/dc/elements/1.1/"
   xmlns:cc="http://creativecommons.org/ns#"
   xmlns:rdf="http://www.w3.org/1999/02/22-rdf-syntax-ns#"
   xmlns:svg="http://www.w3.org/2000/svg"
   xmlns="http://www.w3.org/2000/svg"
   xmlns:sodipodi="http://sodipodi.sourceforge.net/DTD/sodipodi-0.dtd"
   xmlns:inkscape="http://www.inkscape.org/namespaces/inkscape"
   width="250"
   height="175"
   id="svg2"
   version="1.1"
   inkscape:version="0.48.4 r9939"
   sodipodi:docname="New document 1">
  <defs
     id="defs4" />
  <sodipodi:namedview
     id="base"
     pagecolor="#ffffff"
     bordercolor="#666666"
     borderopacity="1.0"
     inkscape:pageopacity="0.0"
     inkscape:pageshadow="2"
     inkscape:zoom="1.979899"
     inkscape:cx="214.6322"
     inkscape:cy="110.08205"
     inkscape:document-units="px"
     inkscape:current-layer="g2993"
     showgrid="false"
     inkscape:window-width="1366"
     inkscape:window-height="745"
     inkscape:window-x="-8"
     inkscape:window-y="-8"
     inkscape:window-maximized="1" />
  <metadata
     id="metadata7">
    <rdf:RDF>
      <cc:Work
         rdf:about="">
        <dc:format>image/svg+xml</dc:format>
        <dc:type
           rdf:resource="http://purl.org/dc/dcmitype/StillImage" />
        <dc:title></dc:title>
      </cc:Work>
    </rdf:RDF>
  </metadata>
  <g
     inkscape:label="Layer 1"
     inkscape:groupmode="layer"
     id="layer1"
     transform="translate(0,-877.36218)">
    <g
       transform="matrix(1.25,0,0,-1.25,2.9460702,1077.452)"
       inkscape:label="Creating an Emotionally Adaptive Game"
       id="g2993">
      <path
         id="path3035"
         style="fill:#e8eef7;fill-opacity:1;fill-rule:evenodd;stroke:none"
         d="m 86.406367,63.824169 c 4.313,0 7.829,3.52 7.829,7.837 l 0,31.747001 c 0,4.317 -3.516,7.837 -7.829,7.837 l -60.571,0 c -4.312,0 -7.828,-3.52 -7.828,-7.837 l 0,-31.747001 c 0,-4.317 3.516,-7.837 7.828,-7.837 l 60.571,0"
         inkscape:connector-curvature="0" />
      <path
         id="path3037"
         style="fill:none;stroke:#000000;stroke-width:0.133;stroke-linecap:round;stroke-linejoin:round;stroke-miterlimit:10;stroke-opacity:1;stroke-dasharray:none"
         d="m 86.406367,63.824169 c 4.313,0 7.829,3.52 7.829,7.837 l 0,31.747001 c 0,4.317 -3.516,7.837 -7.829,7.837 l -60.571,0 c -4.312,0 -7.828,-3.52 -7.828,-7.837 l 0,-31.747001 c 0,-4.317 3.516,-7.837 7.828,-7.837 l 60.571,0 z"
         inkscape:connector-curvature="0" />
      <path
         id="path3039"
         style="fill:#e8eef7;fill-opacity:1;fill-rule:evenodd;stroke:none"
         d="m 167.67637,63.824169 c 4.313,0 7.829,3.52 7.829,7.837 l 0,31.747001 c 0,4.317 -3.516,7.837 -7.829,7.837 l -60.504,0 c -4.379,0 -7.895003,-3.52 -7.895003,-7.837 l 0,-31.747001 c 0,-4.317 3.516003,-7.837 7.895003,-7.837 l 60.504,0"
         inkscape:connector-curvature="0" />
      <path
         id="path3041"
         style="fill:none;stroke:#000000;stroke-width:0.133;stroke-linecap:round;stroke-linejoin:round;stroke-miterlimit:10;stroke-opacity:1;stroke-dasharray:none"
         d="m 167.67637,63.824169 c 4.313,0 7.829,3.52 7.829,7.837 l 0,31.747001 c 0,4.317 -3.516,7.837 -7.829,7.837 l -60.504,0 c -4.379,0 -7.895003,-3.52 -7.895003,-7.837 l 0,-31.747001 c 0,-4.317 3.516003,-7.837 7.895003,-7.837 l 60.504,0 z"
         inkscape:connector-curvature="0" />
      <path
         id="path3043"
         style="fill:#e8eef7;fill-opacity:1;fill-rule:nonzero;stroke:none"
         d="m 100.13937,69.735169 74.503,0 0,28.825 -74.503,0 0,-28.825 z"
         inkscape:connector-curvature="0" />
      <text
         id="text3045"
         transform="scale(0.9994503,-1.00055)"
         x="104.24388"
         y="-90.075737"
         style="font-size:11.99340343px">
        <tspan
           id="tspan3047"
           sodipodi:role="line"
           y="-90.075737"
           x="104.24388 109.02319 112.74046 116.39066 120.10724 123.82581 127.47604 129.33598 130.79633 134.51358 136.37354 140.02374 143.34138 147.05864 150.77589 152.96642 154.42676 158.14401 161.79422 165.11319 168.83044 170.68907"
           style="font-size:6.63794899px;font-variant:normal;font-weight:normal;writing-mode:lr-tb;fill:#000000;fill-opacity:1;fill-rule:nonzero;stroke:none;font-family:TT43DEo00;-inkscape-font-specification:TT43DEo00">Change in experience,</tspan>
        <tspan
           id="tspan3049"
           sodipodi:role="line"
           y="-82.110191"
           x="102.98267 106.63288 110.34945 113.99968 117.71626 121.03391 122.49294 126.2095 128.39937 130.25932 133.97591 137.62611 141.3427 143.20265 146.85286 152.36369 156.08028 157.93823 159.39792 163.11452 166.76471 170.48131 171.94099"
           style="font-size:6.63794899px;font-variant:normal;font-weight:normal;writing-mode:lr-tb;fill:#000000;fill-opacity:1;fill-rule:nonzero;stroke:none;font-family:TT43DEo00;-inkscape-font-specification:TT43DEo00">behavior and emotional</tspan>
        <tspan
           id="tspan3051"
           sodipodi:role="line"
           y="-74.144653"
           x="130.26463 133.58426 135.44356 139.09377 140.95372"
           style="font-size:6.63794899px;font-variant:normal;font-weight:normal;writing-mode:lr-tb;fill:#000000;fill-opacity:1;fill-rule:nonzero;stroke:none;font-family:TT43DEo00;-inkscape-font-specification:TT43DEo00">state</tspan>
      </text>
      <path
         id="path3053"
         style="fill:#e8eef7;fill-opacity:1;fill-rule:nonzero;stroke:none"
         d="m 18.869367,85.808169 74.503,0 0,11.025 -74.503,0 0,-11.025 z"
         inkscape:connector-curvature="0" />
      <text
         id="text3055"
         transform="scale(0.9994503,-1.00055)"
         x="21.269659"
         y="-89.345528"
         style="font-size:11.99340343px">
        <tspan
           id="tspan3057"
           sodipodi:role="line"
           y="-89.345528"
           x="21.269659 25.318144 29.034731 32.353043 36.00325 37.863205 41.579792 45.23 48.946587 51.136448 54.853035 58.503242 60.759483 62.218502 65.868713 67.728668 71.445251 73.305206 76.955414 80.274391 82.132355 83.592041 87.308624"
           style="font-size:6.63794899px;font-variant:normal;font-weight:normal;writing-mode:lr-tb;fill:#000000;fill-opacity:1;fill-rule:nonzero;stroke:none;font-family:TT43DEo00;-inkscape-font-specification:TT43DEo00">Take appropriate action</tspan>
      </text>
      <path
         id="path3059"
         style="fill:#e8eef7;fill-opacity:1;fill-rule:nonzero;stroke:none"
         d="m 20.594367,68.473169 71.916,0 0,11.025 -71.916,0 0,-11.025 z"
         inkscape:connector-curvature="0" />
      <text
         id="text3061"
         transform="scale(0.9994503,-1.00055)"
         x="23.5266"
         y="-71.953995"
         style="font-size:11.99340343px">
        <tspan
           id="tspan3063"
           sodipodi:role="line"
           y="-71.953995"
           x="23.5266 28.704199 32.354404 34.213032 37.930283 41.580494 43.836731 45.696686 50.078396 51.938347 55.655598 59.305809 63.02306 64.483406 67.801064 71.118706 74.835289 76.628868 80.346123 84.06337 85.856941"
           style="font-size:6.63794899px;font-variant:normal;font-weight:normal;writing-mode:lr-tb;fill:#000000;fill-opacity:1;fill-rule:nonzero;stroke:none;font-family:TT43DEo00;-inkscape-font-specification:TT43DEo00">Gather &amp; analyze data</tspan>
      </text>
      <text
         id="text3065"
         transform="scale(0.9994465,-1.0005538)"
         x="44.502598"
         y="-102.15639"
         style="font-size:11.99335766px">
        <tspan
           id="tspan3067"
           sodipodi:role="line"
           y="-102.15639"
           x="44.502598 50.545635 56.118801 62.55637 121.7705 126.88543 131.66489 137.23805 142.41902 147.59999"
           style="font-size:7.76639891px;font-variant:normal;font-weight:normal;writing-mode:lr-tb;fill:#000000;fill-opacity:1;fill-rule:nonzero;stroke:none;font-family:TT43DFo00;-inkscape-font-specification:TT43DFo00">GAMEPLAYER</tspan>
      </text>
      <path
         id="path3069"
         style="fill:none;stroke:#4677bf;stroke-width:0.66399997;stroke-linecap:round;stroke-linejoin:round;stroke-miterlimit:10;stroke-opacity:1;stroke-dasharray:none"
         d="m 130.85637,116.82417 c -25.899,18.413 -50.698003,16.637 -74.702003,-3.852"
         inkscape:connector-curvature="0" />
      <path
         id="path3071"
         style="fill:#4677bf;fill-opacity:1;fill-rule:evenodd;stroke:none"
         d="m 128.60037,114.96517 6.237,-1.129 -2.787,5.712 -3.45,-4.583"
         inkscape:connector-curvature="0" />
      <path
         id="path3073"
         style="fill:#ffffff;fill-opacity:1;fill-rule:nonzero;stroke:none"
         d="m 66.437367,121.60617 56.723003,0 0,15.94 -56.723003,0 0,-15.94 z"
         inkscape:connector-curvature="0" />
      <text
         id="text3075"
         transform="scale(0.9994503,-1.00055)"
         x="67.735207"
         y="-131.49673"
         style="font-size:11.99340343px">
        <tspan
           id="tspan3077"
           sodipodi:role="line"
           y="-131.49673"
           x="67.735207 72.912804 76.563011 82.470787 86.188042 87.981613 93.889389 97.606644 101.32389 105.37304 109.02324 113.07306 114.93168 118.64894"
           style="font-size:6.63794899px;font-variant:normal;font-weight:normal;writing-mode:lr-tb;fill:#000000;fill-opacity:1;fill-rule:nonzero;stroke:none;font-family:TT43E0o00;-inkscape-font-specification:TT43E0o00">Game mechanics</tspan>
      </text>
      <text
         id="text3079"
         transform="scale(0.9994503,-1.00055)"
         x="66.60675"
         y="-123.53121"
         style="font-size:11.99340343px">
        <tspan
           id="tspan3081"
           sodipodi:role="line"
           y="-123.53121"
           x="66.60675 68.862328 72.512535 74.37249 78.091072 79.884644 81.744598 85.461189 86.920204 88.778831 90.571075 92.096481 95.415451 99.065666 100.52468 102.38464 105.70229 107.56223 109.02126 112.73784 116.0555 119.70571 121.23111"
           style="font-size:6.63794899px;font-variant:normal;font-weight:normal;writing-mode:lr-tb;fill:#000000;fill-opacity:1;fill-rule:nonzero;stroke:none;font-family:TT43DEo00;-inkscape-font-specification:TT43DEo00">(e.g. difficulty level)</tspan>
      </text>
      <path
         id="path3083"
         style="fill:none;stroke:#4677bf;stroke-width:0.66399997;stroke-linecap:round;stroke-linejoin:round;stroke-miterlimit:10;stroke-opacity:1;stroke-dasharray:none"
         d="m 61.727367,58.179169 c 26.09,-19.675 51.437003,-17.231 75.697003,3.918"
         inkscape:connector-curvature="0" />
      <path
         id="path3085"
         style="fill:#4677bf;fill-opacity:1;fill-rule:evenodd;stroke:none"
         d="m 64.049367,59.972169 -6.236,1.262 2.72,-5.778 3.516,4.516"
         inkscape:connector-curvature="0" />
      <path
         id="path3087"
         style="fill:#ffffff;fill-opacity:1;fill-rule:nonzero;stroke:none"
         d="m 75.128367,36.793169 44.980003,0 0,15.94 -44.980003,0 0,-15.94 z"
         inkscape:connector-curvature="0" />
      <text
         id="text3089"
         transform="scale(0.9994503,-1.00055)"
         x="76.829201"
         y="-46.729664"
         style="font-size:11.99340343px">
        <tspan
           id="tspan3091"
           sodipodi:role="line"
           y="-46.729664"
           x="76.829201 81.276627 87.184402 91.233551 93.42408 95.2827 99.331848 103.38101 105.24096 109.2901 113.00735 115.19788"
           style="font-size:6.63794899px;font-variant:normal;font-weight:normal;writing-mode:lr-tb;fill:#000000;fill-opacity:1;fill-rule:nonzero;stroke:none;font-family:TT43E0o00;-inkscape-font-specification:TT43E0o00">Emotion data</tspan>
      </text>
      <text
         id="text3093"
         transform="scale(0.9994503,-1.00055)"
         x="75.368851"
         y="-38.764126"
         style="font-size:11.99340343px">
        <tspan
           id="tspan3095"
           sodipodi:role="line"
           y="-38.764126"
           x="75.368851 77.560036 81.277954 83.137245 86.78878 88.648071 90.508018 95.28801 100.06799 101.92729 103.78724 108.96552 113.34722 118.19159"
           style="font-size:6.63794899px;font-variant:normal;font-weight:normal;writing-mode:lr-tb;fill:#000000;fill-opacity:1;fill-rule:nonzero;stroke:none;font-family:TT43DEo00;-inkscape-font-specification:TT43DEo00">(e.g. HR, GSR)</tspan>
      </text>
      <path
         id="path3097"
         style="fill:none;stroke:#4677bf;stroke-width:0.398;stroke-linecap:round;stroke-linejoin:round;stroke-miterlimit:10;stroke-opacity:1;stroke-dasharray:none"
         d="m 56.154367,82.022169 0,-2.988"
         inkscape:connector-curvature="0" />
      <path
         id="path3099"
         style="fill:#4677bf;fill-opacity:1;fill-rule:evenodd;stroke:none"
         d="m 58.343367,81.425169 -2.189,4.383 -2.189,-4.383 4.378,0"
         inkscape:connector-curvature="0" />
    </g>
  </g>
</svg>
